<svg xmlns="http://www.w3.org/2000/svg" xmlns:xlink="http://www.w3.org/1999/xlink" viewBox="0 0 100 125" version="1.1" x="0px" y="0px"><title>Star 4.6</title><desc>Created with Sketch.</desc><g stroke="none" stroke-width="1" fill="none" fill-rule="evenodd"><g fill-rule="nonzero" fill="#000000"><path d="M49.1096508,64.1702202 C49.6023967,63.9111683 50.3941399,63.9074063 50.8940417,64.1702202 L60.062547,68.9903887 C62.016082,70.0174228 63.2967475,69.0834457 62.9241922,66.9112817 L61.1731635,56.702001 C61.0790574,56.1533204 61.3201416,55.3991653 61.7245707,55.0049444 L69.1420472,47.7746917 C70.7224903,46.2341405 70.2299727,44.7275404 68.048996,44.410626 L57.7982955,42.921112 C57.2473888,42.8410605 56.6046438,42.3787291 56.3546929,41.8722733 L51.7704403,32.5835629 C50.7936728,30.6044158 49.2086146,30.6072628 48.2332522,32.5835629 L43.6489996,41.8722733 C43.4026266,42.3714795 42.7643042,42.839898 42.205397,42.921112 L31.9546965,44.410626 C29.7705779,44.727997 29.2834757,46.2363566 30.8616452,47.7746917 L38.2791218,55.0049444 C38.6777617,55.3935222 38.9260017,56.1453522 38.8305289,56.702001 L37.0795003,66.9112817 C36.7064083,69.0865749 37.9904207,70.0159454 39.9411455,68.9903887 L49.1096508,64.1702202 Z"/></g></g><text x="0" y="115" fill="#000000" font-size="5px" font-weight="bold" font-family="'Helvetica Neue', Helvetica, Arial-Unicode, Arial, Sans-serif">Created by Landan Lloyd</text><text x="0" y="120" fill="#000000" font-size="5px" font-weight="bold" font-family="'Helvetica Neue', Helvetica, Arial-Unicode, Arial, Sans-serif">from the Noun Project</text></svg>